<?xml version="1.0" encoding="UTF-8"?><svg id="Layer_1" xmlns="http://www.w3.org/2000/svg" viewBox="0 0 1080 1917.07"><defs><style>.cls-1{fill:#33cc4a;}.cls-1,.cls-2,.cls-3,.cls-4,.cls-5,.cls-6,.cls-7{stroke:#403131;stroke-linecap:round;stroke-linejoin:round;}.cls-2{fill:#8b85ff;}.cls-3{fill:#ff4747;}.cls-4{fill:#ffda8d;}.cls-5{fill:#ff7add;}.cls-6{fill:#e9f51d;}.cls-7{fill:none;}.cls-8{fill:#ffc688;}.cls-9{fill:#383838;}.cls-10{isolation:isolate;}</style></defs><rect class="cls-8" x="-3.42" y="-3.76" width="1086.84" height="1927.21"/><rect class="cls-5" x="118.29" y="167.03" width="290.2" height="412.58"/><circle class="cls-2" cx="252.34" cy="1422.06" r="177.08"/><rect class="cls-6" x="684.22" y="718.69" width="378.96" height="224.79" transform="translate(42.62 1704.78) rotate(-90)"/><line class="cls-2" x1="175.83" y1="119.17" x2="175.83" y2="1798.11"/><line class="cls-2" x1="207.49" y1="119.17" x2="207.49" y2="1798.11"/><line class="cls-2" x1="239.16" y1="119.17" x2="239.16" y2="1798.11"/><line class="cls-2" x1="270.83" y1="119.17" x2="270.83" y2="1798.11"/><line class="cls-2" x1="302.5" y1="119.17" x2="302.5" y2="1798.11"/><line class="cls-2" x1="334.16" y1="119.17" x2="334.16" y2="1798.11"/><line class="cls-2" x1="365.83" y1="119.17" x2="365.83" y2="1798.11"/><line class="cls-2" x1="397.5" y1="119.17" x2="397.5" y2="1798.11"/><line class="cls-2" x1="429.16" y1="119.17" x2="429.16" y2="1798.11"/><line class="cls-2" x1="460.83" y1="119.17" x2="460.83" y2="1798.11"/><line class="cls-2" x1="492.5" y1="119.17" x2="492.5" y2="1798.11"/><line class="cls-2" x1="524.17" y1="119.17" x2="524.17" y2="1798.11"/><line class="cls-2" x1="555.83" y1="119.17" x2="555.83" y2="1798.11"/><line class="cls-2" x1="587.5" y1="119.17" x2="587.5" y2="1798.11"/><line class="cls-2" x1="619.17" y1="119.17" x2="619.17" y2="1798.11"/><line class="cls-2" x1="650.84" y1="119.17" x2="650.84" y2="1798.11"/><line class="cls-2" x1="682.5" y1="119.17" x2="682.5" y2="1798.11"/><line class="cls-2" x1="714.17" y1="119.17" x2="714.17" y2="1798.11"/><line class="cls-2" x1="745.84" y1="119.17" x2="745.84" y2="1798.11"/><line class="cls-2" x1="777.5" y1="119.17" x2="777.5" y2="1798.11"/><line class="cls-2" x1="809.17" y1="119.17" x2="809.17" y2="1798.11"/><line class="cls-2" x1="840.84" y1="119.17" x2="840.84" y2="1798.11"/><line class="cls-2" x1="872.51" y1="119.17" x2="872.51" y2="1798.11"/><line class="cls-2" x1="904.17" y1="119.17" x2="904.17" y2="1798.11"/><line class="cls-2" x1="175.83" y1="118.96" x2="904.17" y2="118.96"/><line class="cls-2" x1="175.83" y1="150.65" x2="904.17" y2="150.65"/><line class="cls-2" x1="175.83" y1="182.33" x2="904.17" y2="182.33"/><line class="cls-2" x1="175.83" y1="214.01" x2="904.17" y2="214.01"/><line class="cls-2" x1="175.83" y1="245.69" x2="904.17" y2="245.69"/><line class="cls-2" x1="175.83" y1="277.37" x2="904.17" y2="277.37"/><line class="cls-2" x1="175.83" y1="309.06" x2="904.17" y2="309.06"/><line class="cls-2" x1="175.83" y1="340.74" x2="904.17" y2="340.74"/><line class="cls-2" x1="175.83" y1="372.42" x2="904.17" y2="372.42"/><line class="cls-2" x1="175.83" y1="404.1" x2="904.17" y2="404.1"/><line class="cls-2" x1="175.83" y1="435.78" x2="904.17" y2="435.78"/><line class="cls-2" x1="175.83" y1="467.47" x2="904.17" y2="467.47"/><line class="cls-2" x1="175.83" y1="499.15" x2="904.17" y2="499.15"/><line class="cls-2" x1="175.83" y1="530.83" x2="904.17" y2="530.83"/><line class="cls-2" x1="175.83" y1="562.51" x2="904.17" y2="562.51"/><line class="cls-2" x1="175.83" y1="594.19" x2="904.17" y2="594.19"/><line class="cls-2" x1="175.83" y1="625.87" x2="904.17" y2="625.87"/><line class="cls-2" x1="175.83" y1="657.56" x2="904.17" y2="657.56"/><line class="cls-2" x1="175.83" y1="689.24" x2="904.17" y2="689.24"/><line class="cls-2" x1="175.83" y1="720.92" x2="904.17" y2="720.92"/><line class="cls-2" x1="175.83" y1="752.6" x2="904.17" y2="752.6"/><line class="cls-2" x1="175.83" y1="784.28" x2="904.17" y2="784.28"/><line class="cls-2" x1="175.83" y1="815.97" x2="904.17" y2="815.97"/><line class="cls-2" x1="175.83" y1="847.65" x2="904.17" y2="847.65"/><line class="cls-2" x1="175.83" y1="879.33" x2="904.17" y2="879.33"/><line class="cls-2" x1="175.83" y1="911.01" x2="904.17" y2="911.01"/><line class="cls-2" x1="175.83" y1="942.69" x2="904.17" y2="942.69"/><line class="cls-2" x1="175.83" y1="974.38" x2="904.17" y2="974.38"/><line class="cls-2" x1="175.83" y1="1006.06" x2="904.17" y2="1006.06"/><line class="cls-2" x1="175.83" y1="1037.74" x2="904.17" y2="1037.74"/><line class="cls-2" x1="175.83" y1="1069.42" x2="904.17" y2="1069.42"/><line class="cls-2" x1="175.83" y1="1101.1" x2="904.17" y2="1101.1"/><line class="cls-2" x1="175.83" y1="1132.79" x2="904.17" y2="1132.79"/><line class="cls-2" x1="175.83" y1="1164.47" x2="904.17" y2="1164.47"/><line class="cls-2" x1="175.83" y1="1196.15" x2="904.17" y2="1196.15"/><line class="cls-2" x1="175.83" y1="1227.83" x2="904.17" y2="1227.83"/><line class="cls-2" x1="175.83" y1="1259.51" x2="904.17" y2="1259.51"/><line class="cls-2" x1="175.83" y1="1291.2" x2="904.17" y2="1291.2"/><line class="cls-2" x1="175.83" y1="1322.88" x2="904.17" y2="1322.88"/><line class="cls-2" x1="175.83" y1="1354.56" x2="904.17" y2="1354.56"/><line class="cls-2" x1="175.83" y1="1386.24" x2="904.17" y2="1386.24"/><line class="cls-2" x1="175.83" y1="1417.92" x2="904.17" y2="1417.92"/><line class="cls-2" x1="175.83" y1="1449.61" x2="904.17" y2="1449.61"/><line class="cls-2" x1="175.83" y1="1481.29" x2="904.17" y2="1481.29"/><line class="cls-2" x1="175.83" y1="1512.97" x2="904.17" y2="1512.97"/><line class="cls-2" x1="175.83" y1="1544.65" x2="904.17" y2="1544.65"/><line class="cls-2" x1="175.83" y1="1576.33" x2="904.17" y2="1576.33"/><line class="cls-2" x1="175.83" y1="1608.02" x2="904.17" y2="1608.02"/><line class="cls-2" x1="175.83" y1="1639.7" x2="904.17" y2="1639.7"/><line class="cls-2" x1="175.83" y1="1671.38" x2="904.17" y2="1671.38"/><line class="cls-2" x1="175.83" y1="1703.06" x2="904.17" y2="1703.06"/><line class="cls-2" x1="175.83" y1="1734.74" x2="904.17" y2="1734.74"/><line class="cls-2" x1="175.83" y1="1766.43" x2="904.17" y2="1766.43"/><line class="cls-2" x1="175.83" y1="1798.11" x2="904.17" y2="1798.11"/><g class="cls-10"><path class="cls-5" d="m200.17,990.87c3.23-.45,5.83,2,5.82,5.48s-2.62,6.67-5.85,7.12c-3.23.45-5.84-2-5.83-5.48s2.63-6.67,5.85-7.12Z"/><path class="cls-5" d="m203.29,991.41l155.18,84.42c1.63.89,2.71,2.7,2.7,4.94,0,3.48-2.62,6.67-5.85,7.12-1.15.16-2.22-.05-3.12-.54l-155.18-84.42c.9.49,1.97.7,3.12.54,3.23-.45,5.84-3.64,5.85-7.12,0-2.24-1.07-4.06-2.7-4.94Z"/></g><g class="cls-10"><path class="cls-2" d="m609.09,139.66c3.23-.45,5.83,2,5.82,5.48s-2.62,6.67-5.85,7.12-5.84-2-5.83-5.48,2.63-6.67,5.85-7.12Z"/><path class="cls-2" d="m612.21,140.2l155.18,84.42c1.63.89,2.71,2.7,2.7,4.94,0,3.48-2.62,6.67-5.85,7.12-1.15.16-2.22-.05-3.12-.54l-155.18-84.42c.9.49,1.97.7,3.12.54,3.23-.45,5.84-3.64,5.85-7.12,0-2.24-1.07-4.06-2.7-4.94Z"/></g><line class="cls-7" x1="567.69" y1="546.95" x2="605.33" y2="567.38"/><g class="cls-10"><path class="cls-2" d="m754.71,1049.82c3.23-.45,5.83,2,5.82,5.48,0,3.48-2.62,6.67-5.85,7.12-3.23.45-5.84-2-5.83-5.48,0-3.48,2.63-6.67,5.85-7.12Z"/><path class="cls-2" d="m757.83,1050.36l155.18,84.42c1.63.89,2.71,2.7,2.7,4.94,0,3.48-2.62,6.67-5.85,7.12-1.15.16-2.22-.05-3.12-.54l-155.18-84.42c.9.49,1.97.7,3.12.54,3.23-.45,5.84-3.64,5.85-7.12,0-2.24-1.07-4.06-2.7-4.94Z"/></g><g class="cls-10"><path class="cls-6" d="m286,749.1l5.81,3.16c-.33-.18-.67-.34-1.03-.48l-5.81-3.16c.36.14.7.31,1.03.48Z"/><path class="cls-6" d="m286.28,736.76l5.81,3.16c3.03,1.65,4.87,5.27,8.05,7l-5.81-3.16c-3.18-1.73-5.02-5.35-8.05-7Z"/><path class="cls-6" d="m323.71,743.52l5.81,3.16c-1.44-.78-3.16-1.19-5.44-.87-9.38,1.32-9.4,12.36-18.78,13.67-2.46.35-4.26-.08-5.75-.89l-5.81-3.16c1.49.81,3.29,1.23,5.75.89,9.38-1.32,9.4-12.36,18.78-13.67,2.28-.32,4,.09,5.44.87Z"/><path class="cls-6" d="m323.73,731.81l5.81,3.16c3.05,1.66,4.82,5,7.87,6.66l-5.81-3.16c-3.05-1.66-4.82-5-7.87-6.66Z"/><path class="cls-6" d="m360.99,738.23l5.81,3.16c-1.4-.76-3.05-1.16-5.18-.86-9.38,1.32-9.4,12.36-18.78,13.67-2.28.32-4-.09-5.44-.87l-5.81-3.16c1.44.78,3.16,1.19,5.44.87,9.38-1.32,9.4-12.36,18.78-13.67,2.13-.3,3.79.1,5.18.86Z"/><path class="cls-6" d="m361.57,726.55l5.81,3.16c2.92,1.59,4.63,4.67,7.74,6.35l-5.81-3.16c-3.1-1.69-4.82-4.77-7.74-6.35Z"/><path class="cls-6" d="m355.82,725.66c7.98-1.12,9.04,5.86,14.93,7.88l-.02,12.34c-5.67-1.35-7.12-9.6-14.93-8.51-9.38,1.32-9.4,12.36-18.78,13.67-9.38,1.32-9.36-9.72-18.75-8.4-9.38,1.32-9.4,12.36-18.78,13.67-7.79,1.09-8.98-5.51-14.51-7.71l.02-12.39c5.33,1.65,6.89,9.47,14.51,8.4,9.38-1.32,9.4-12.36,18.79-13.68,9.38-1.32,9.36,9.72,18.74,8.4,9.38-1.32,9.4-12.36,18.79-13.68Z"/><path class="cls-6" d="m374.84,748.38l-5.81-3.16c.53.29,1.09.51,1.71.66l5.81,3.16c-.61-.15-1.18-.37-1.71-.66Z"/><polygon class="cls-6" points="370.76 733.54 376.56 736.7 376.54 749.04 370.74 745.88 370.76 733.54"/></g><g class="cls-10"><path class="cls-5" d="m834.15,336.18l5.81,3.16c-.33-.18-.67-.34-1.03-.48l-5.81-3.16c.36.14.7.31,1.03.48Z"/><path class="cls-5" d="m834.42,323.85l5.81,3.16c3.03,1.65,4.87,5.27,8.05,7l-5.81-3.16c-3.18-1.73-5.02-5.35-8.05-7Z"/><path class="cls-5" d="m871.86,330.61l5.81,3.16c-1.44-.78-3.16-1.19-5.44-.87-9.38,1.32-9.4,12.36-18.78,13.67-2.46.35-4.26-.08-5.75-.89l-5.81-3.16c1.49.81,3.29,1.23,5.75.89,9.38-1.32,9.4-12.36,18.78-13.67,2.28-.32,4,.09,5.44.87Z"/><path class="cls-5" d="m871.88,318.9l5.81,3.16c3.05,1.66,4.82,5,7.87,6.66l-5.81-3.16c-3.05-1.66-4.82-5-7.87-6.66Z"/><path class="cls-5" d="m909.13,325.32l5.81,3.16c-1.4-.76-3.05-1.16-5.18-.86-9.38,1.32-9.4,12.36-18.78,13.67-2.28.32-4-.09-5.44-.87l-5.81-3.16c1.44.78,3.16,1.19,5.44.87,9.38-1.32,9.4-12.36,18.78-13.67,2.13-.3,3.79.1,5.18.86Z"/><path class="cls-5" d="m909.72,313.64l5.81,3.16c2.92,1.59,4.63,4.67,7.74,6.35l-5.81-3.16c-3.1-1.69-4.82-4.77-7.74-6.35Z"/><path class="cls-5" d="m903.97,312.75c7.98-1.12,9.04,5.86,14.93,7.88l-.02,12.34c-5.67-1.35-7.12-9.6-14.93-8.51-9.38,1.32-9.4,12.36-18.78,13.67s-9.36-9.72-18.75-8.4-9.4,12.36-18.78,13.67c-7.79,1.09-8.98-5.51-14.51-7.71l.02-12.39c5.33,1.65,6.89,9.47,14.51,8.4,9.38-1.32,9.4-12.36,18.79-13.68s9.36,9.72,18.74,8.4c9.38-1.32,9.4-12.36,18.79-13.68Z"/><path class="cls-5" d="m922.98,335.47l-5.81-3.16c.53.29,1.09.51,1.71.66l5.81,3.16c-.61-.15-1.18-.37-1.71-.66Z"/><polygon class="cls-5" points="918.9 320.63 924.71 323.79 924.69 336.13 918.88 332.97 918.9 320.63"/></g><g class="cls-10"><path class="cls-5" d="m355.61,1743.49l5.81,3.16c-.33-.18-.67-.34-1.03-.48l-5.81-3.16c.36.14.7.31,1.03.48Z"/><path class="cls-5" d="m355.89,1731.16l5.81,3.16c3.03,1.65,4.87,5.27,8.05,7l-5.81-3.16c-3.18-1.73-5.02-5.35-8.05-7Z"/><path class="cls-5" d="m393.32,1737.92l5.81,3.16c-1.44-.78-3.16-1.19-5.44-.87-9.38,1.32-9.4,12.36-18.78,13.67-2.46.35-4.26-.08-5.75-.89l-5.81-3.16c1.49.81,3.29,1.23,5.75.89,9.38-1.32,9.4-12.36,18.78-13.67,2.28-.32,4,.09,5.44.87Z"/><path class="cls-5" d="m393.34,1726.2l5.81,3.16c3.05,1.66,4.82,5,7.87,6.66l-5.81-3.16c-3.05-1.66-4.82-5-7.87-6.66Z"/><path class="cls-5" d="m430.6,1732.63l5.81,3.16c-1.4-.76-3.05-1.16-5.18-.86-9.38,1.32-9.4,12.36-18.78,13.67-2.28.32-4-.09-5.44-.87l-5.81-3.16c1.44.78,3.16,1.19,5.44.87,9.38-1.32,9.4-12.36,18.78-13.67,2.13-.3,3.79.1,5.18.86Z"/><path class="cls-5" d="m431.18,1720.94l5.81,3.16c2.92,1.59,4.63,4.67,7.74,6.35l-5.81-3.16c-3.1-1.69-4.82-4.77-7.74-6.35Z"/><path class="cls-5" d="m425.43,1720.06c7.98-1.12,9.04,5.86,14.93,7.88l-.02,12.34c-5.67-1.35-7.12-9.6-14.93-8.51-9.38,1.32-9.4,12.36-18.78,13.67-9.38,1.32-9.36-9.72-18.75-8.4-9.38,1.32-9.4,12.36-18.78,13.67-7.79,1.09-8.98-5.51-14.51-7.71l.02-12.39c5.33,1.65,6.89,9.47,14.51,8.4,9.38-1.32,9.4-12.36,18.79-13.68,9.38-1.32,9.36,9.72,18.74,8.4,9.38-1.32,9.4-12.36,18.79-13.68Z"/><path class="cls-5" d="m444.45,1742.77l-5.81-3.16c.53.29,1.09.51,1.71.66l5.81,3.16c-.61-.15-1.18-.37-1.71-.66Z"/><polygon class="cls-5" points="440.37 1727.94 446.17 1731.1 446.15 1743.43 440.34 1740.28 440.37 1727.94"/></g><g class="cls-10"><path class="cls-2" d="m323.56,129.73l7.84,4.27c-2.45-1.33-4.95-2.02-7.15-1.71-.07,0-.13,0-.18-.03l-7.84-4.27c.05.03.11.04.18.03,2.2-.31,4.7.38,7.15,1.71Z"/><path class="cls-2" d="m335.44,104.39l7.84,4.27c.09.05.15.15.15.28-.01,5.65,5.46,12.47,11.29,15.64l-7.84-4.27c-5.83-3.17-11.3-9.99-11.29-15.64,0-.13-.06-.23-.15-.28Z"/><path class="cls-2" d="m354.21,122.05l7.84,4.27c.09.05.15.15.15.28,0,.2-.15.38-.34.4-7.42,1.04-18.5,14.53-18.52,22.55,0,.2-.15.38-.33.4-.07,0-.13,0-.18-.03l-7.84-4.27c.05.03.11.04.18.03.18-.03.33-.21.33-.4.01-8.02,11.09-21.5,18.52-22.55.18-.03.34-.21.34-.4,0-.13-.06-.23-.15-.28Z"/><path class="cls-2" d="m335.26,104.36c.18-.03.33.12.33.31-.01,8.02,11.02,18.4,18.44,17.35.18-.03.34.11.33.31s-.15.38-.34.4c-7.42,1.04-18.5,14.53-18.52,22.55,0,.2-.15.38-.33.4s-.34-.11-.33-.31c.01-8.02-11.01-18.4-18.44-17.35-.18.03-.33-.11-.33-.31s.15-.38.33-.4c7.43-1.04,18.5-14.53,18.52-22.55,0-.19.15-.38.34-.4Z"/></g><g class="cls-10"><path class="cls-3" d="m879.39,991.11l7.84,4.27c-2.45-1.33-4.95-2.02-7.15-1.71-.07,0-.13,0-.18-.03l-7.84-4.27c.05.03.11.04.18.03,2.2-.31,4.7.38,7.15,1.71Z"/><path class="cls-3" d="m891.27,965.77l7.84,4.27c.09.05.15.15.15.28-.01,5.65,5.46,12.47,11.29,15.64l-7.84-4.27c-5.83-3.17-11.3-9.99-11.29-15.64,0-.13-.06-.23-.15-.28Z"/><path class="cls-3" d="m910.05,983.43l7.84,4.27c.09.05.15.15.15.28,0,.2-.15.38-.34.4-7.42,1.04-18.5,14.53-18.52,22.55,0,.2-.15.38-.33.4-.07,0-.13,0-.18-.03l-7.84-4.27c.05.03.11.04.18.03.18-.03.33-.21.33-.4.01-8.02,11.09-21.5,18.52-22.55.18-.03.34-.21.34-.4,0-.13-.06-.23-.15-.28Z"/><path class="cls-3" d="m891.09,965.74c.18-.03.33.12.33.31-.01,8.02,11.02,18.4,18.44,17.35.18-.03.34.11.33.31s-.15.38-.34.4c-7.42,1.04-18.5,14.53-18.52,22.55,0,.2-.15.38-.33.4s-.34-.11-.33-.31c.01-8.02-11.01-18.4-18.44-17.35-.18.03-.33-.11-.33-.31s.15-.38.33-.4c7.43-1.04,18.5-14.53,18.52-22.55,0-.19.15-.38.34-.4Z"/></g><g class="cls-10"><path class="cls-2" d="m967.96,1863.14l7.84,4.27c-2.45-1.33-4.95-2.02-7.15-1.71-.07,0-.13,0-.18-.03l-7.84-4.27c.05.03.11.04.18.03,2.2-.31,4.7.38,7.15,1.71Z"/><path class="cls-2" d="m979.84,1837.8l7.84,4.27c.09.05.15.15.15.28-.01,5.65,5.46,12.47,11.29,15.64l-7.84-4.27c-5.83-3.17-11.3-9.99-11.29-15.64,0-.13-.06-.23-.15-.28Z"/><path class="cls-2" d="m998.62,1855.46l7.84,4.27c.09.05.15.15.15.28,0,.2-.15.38-.34.4-7.42,1.04-18.5,14.53-18.52,22.55,0,.2-.15.38-.33.4-.07,0-.13,0-.18-.03l-7.84-4.27c.05.03.11.04.18.03.18-.03.33-.21.33-.4.01-8.02,11.09-21.5,18.52-22.55.18-.03.34-.21.34-.4,0-.13-.06-.23-.15-.28Z"/><path class="cls-2" d="m979.67,1837.77c.18-.03.33.12.33.31-.01,8.02,11.02,18.4,18.44,17.35.18-.03.34.11.33.31s-.15.38-.34.4c-7.42,1.04-18.5,14.53-18.52,22.55,0,.2-.15.38-.33.4s-.34-.11-.33-.31c.01-8.02-11.01-18.4-18.44-17.35-.18.03-.33-.11-.33-.31s.15-.38.33-.4c7.43-1.04,18.5-14.53,18.52-22.55,0-.19.15-.38.34-.4Z"/></g><g class="cls-10"><path class="cls-5" d="m79.64,781.12l7.84,4.27c-2.45-1.33-4.95-2.02-7.15-1.71-.07,0-.13,0-.18-.03l-7.84-4.27c.05.03.11.04.18.03,2.2-.31,4.7.38,7.15,1.71Z"/><path class="cls-5" d="m91.52,755.77l7.84,4.27c.09.05.15.15.15.28-.01,5.65,5.46,12.47,11.29,15.64l-7.84-4.27c-5.83-3.17-11.3-9.99-11.29-15.64,0-.13-.06-.23-.15-.28Z"/><path class="cls-5" d="m110.29,773.44l7.84,4.27c.09.05.15.15.15.28,0,.2-.15.38-.34.4-7.42,1.04-18.5,14.53-18.52,22.55,0,.2-.15.38-.33.4-.07,0-.13,0-.18-.03l-7.84-4.27c.05.03.11.04.18.03.18-.03.33-.21.33-.4.01-8.02,11.09-21.5,18.52-22.55.18-.03.34-.21.34-.4,0-.13-.06-.23-.15-.28Z"/><path class="cls-5" d="m91.34,755.74c.18-.03.33.12.33.31-.01,8.02,11.02,18.4,18.44,17.35.18-.03.34.11.33.31s-.15.38-.34.4c-7.42,1.04-18.5,14.53-18.52,22.55,0,.2-.15.38-.33.4s-.34-.11-.33-.31c.01-8.02-11.01-18.4-18.44-17.35-.18.03-.33-.11-.33-.31s.15-.38.33-.4c7.43-1.04,18.5-14.53,18.52-22.55,0-.19.15-.38.34-.4Z"/></g><circle class="cls-6" cx="116.15" cy="1704.09" r="17.73"/><circle class="cls-4" cx="130.11" cy="1005.18" r="17.73"/><circle class="cls-6" cx="954.44" cy="411.83" r="17.73"/><g class="cls-10"><polygon class="cls-3" points="921.34 1376.65 925.95 1379.15 911.33 1405.3 906.73 1402.79 921.34 1376.65"/><polygon class="cls-3" points="913.83 1372.4 918.43 1374.91 925.95 1379.15 921.34 1376.65 913.83 1372.4"/><polygon class="cls-3" points="909.51 1411.79 914.12 1414.29 893.1 1420.21 888.5 1417.71 909.51 1411.79"/><polygon class="cls-3" points="928.41 1396.69 933.02 1399.19 918.86 1423.27 914.25 1420.76 928.41 1396.69"/><polygon class="cls-3" points="913.93 1430.57 918.53 1433.07 900.66 1437.18 896.05 1434.68 913.93 1430.57"/><polygon class="cls-3" points="908.93 1458.71 913.54 1461.21 905.87 1457.25 901.26 1454.74 908.93 1458.71"/><polygon class="cls-3" points="930.81 1416.95 935.41 1419.46 913.54 1461.21 908.93 1458.71 930.81 1416.95"/><polygon class="cls-3" points="914.25 1420.76 930.81 1416.95 908.93 1458.71 901.26 1454.74 913.93 1430.57 896.05 1434.68 909.51 1411.79 888.5 1417.71 913.83 1372.4 921.34 1376.65 906.73 1402.79 928.41 1396.69 914.25 1420.76"/></g><g class="cls-10"><polygon class="cls-6" points="98.04 273.39 102.64 275.9 88.02 302.04 83.42 299.54 98.04 273.39"/><polygon class="cls-6" points="90.52 269.15 95.12 271.65 102.64 275.9 98.04 273.39 90.52 269.15"/><polygon class="cls-6" points="86.2 308.54 90.81 311.04 69.79 316.96 65.19 314.46 86.2 308.54"/><polygon class="cls-6" points="105.11 293.43 109.71 295.94 95.55 320.02 90.94 317.51 105.11 293.43"/><polygon class="cls-6" points="90.62 327.32 95.23 329.82 77.35 333.93 72.74 331.43 90.62 327.32"/><polygon class="cls-6" points="85.62 355.45 90.23 357.96 82.56 354 77.96 351.49 85.62 355.45"/><polygon class="cls-6" points="107.5 313.7 112.1 316.21 90.23 357.96 85.62 355.45 107.5 313.7"/><polygon class="cls-6" points="90.94 317.51 107.5 313.7 85.62 355.45 77.96 351.49 90.62 327.32 72.74 331.43 86.2 308.54 65.19 314.46 90.52 269.15 98.04 273.39 83.42 299.54 105.11 293.43 90.94 317.51"/></g><path class="cls-4" d="m199.68,1089.63c-4.97-1.82-10.11-2.3-15.02-1.63-4.48-17.71-17.35-32.97-35.8-39.71-21.45-7.84-44.56-2.01-59.8,13.04-1.52-.95-3.17-1.77-4.92-2.41-11.77-4.3-24.63.41-31.03,10.62-3.93-5.01-9.25-9.02-15.67-11.37-7.24-2.64-14.77-2.77-21.66-.83.76-1.48,1.44-3.01,2.03-4.61,7.73-21.15-3.15-44.57-24.31-52.3-21.15-7.73-44.57,3.15-52.3,24.31-2.38,6.5-2.99,13.22-2.09,19.63-45.35-5.47-90.15,20.65-106.5,65.41-19.08,52.21,7.78,110,59.99,129.07,52.21,19.08,110-7.78,129.07-59.99.54-1.48,1.04-2.96,1.5-4.44,4.78,4.93,10.71,8.89,17.6,11.41,24.35,8.9,51.3-3.63,60.2-27.98.65-1.78,1.17-3.57,1.6-5.36,2.25,1.19,4.6,2.25,7.06,3.15,21.09,7.71,43.78,2.2,59.02-12.3,2.72,2.28,5.88,4.14,9.41,5.43,16.33,5.97,34.4-2.43,40.37-18.76,5.97-16.33-2.43-34.4-18.76-40.37Z"/><path class="cls-4" d="m1042.62,59.61c-27.82-.09-51.69,16.91-61.71,41.11-.03,0-.06,0-.09,0-2.65,0-5.25.18-7.79.54-6.79-19-24.92-32.63-46.27-32.7-22.06-.07-40.78,14.35-47.14,34.31-5.39-3.3-11.73-5.22-18.52-5.24-10.04-.03-19.12,4.08-25.64,10.73-2.47-11.82-12.93-20.72-25.49-20.76-14.43-.05-26.17,11.61-26.22,26.04-.05,14.43,11.61,26.17,26.04,26.22,5.79.02,11.14-1.85,15.48-5.02.77,19,16.38,34.19,35.58,34.26,12.84.04,24.11-6.69,30.44-16.83,8.92,9.14,21.35,14.84,35.13,14.89.49,0,.97-.02,1.45-.03,5.54,23.95,26.94,41.84,52.58,41.92,16.79.06,31.83-7.54,41.8-19.5,6.28,1.99,12.97,3.08,19.91,3.11,36.74.12,66.63-29.56,66.75-66.3.12-36.74-29.56-66.63-66.3-66.75Z"/><path class="cls-4" d="m712.2,1337.64c17.65-.06,32.81,10.73,39.16,26.09.02,0,.04,0,.06,0,1.68,0,3.33.12,4.95.34,4.31-12.06,15.82-20.71,29.36-20.75,14-.05,25.88,9.11,29.92,21.78,3.42-2.1,7.44-3.31,11.75-3.32,6.37-.02,12.14,2.59,16.27,6.81,1.57-7.5,8.2-13.15,16.17-13.17,9.16-.03,16.61,7.37,16.64,16.53s-7.37,16.61-16.53,16.64c-3.67.01-7.07-1.17-9.82-3.18-.49,12.06-10.4,21.7-22.58,21.74-8.15.03-15.3-4.25-19.32-10.68-5.66,5.8-13.55,9.42-22.29,9.45-.31,0-.61-.01-.92-.02-3.51,15.2-17.1,26.55-33.37,26.61-10.66.04-20.2-4.78-26.53-12.38-3.99,1.27-8.23,1.96-12.64,1.97-23.32.08-42.28-18.76-42.36-42.08-.08-23.32,18.76-42.28,42.08-42.36Z"/><path class="cls-4" d="m1132,1175.03c-17.65-.06-32.81,10.73-39.16,26.09-.02,0-.04,0-.06,0-1.68,0-3.33.12-4.95.34-4.31-12.06-15.82-20.71-29.36-20.75-14-.05-25.88,9.11-29.92,21.78-3.42-2.1-7.44-3.31-11.75-3.32-6.37-.02-12.14,2.59-16.27,6.81-1.57-7.5-8.2-13.15-16.17-13.17-9.16-.03-16.61,7.37-16.64,16.53-.03,9.16,7.37,16.61,16.53,16.64,3.67.01,7.07-1.17,9.82-3.18.49,12.06,10.4,21.7,22.58,21.74,8.15.03,15.3-4.25,19.32-10.68,5.66,5.8,13.55,9.42,22.29,9.45.31,0,.61-.01.92-.02,3.51,15.2,17.1,26.55,33.37,26.61,10.66.04,20.2-4.78,26.53-12.38,3.99,1.27,8.23,1.96,12.64,1.97,23.32.08,42.28-18.76,42.36-42.08.08-23.32-18.76-42.28-42.08-42.36Z"/><path class="cls-4" d="m259.42-32.75c17.65-.06,32.81,10.73,39.16,26.09.02,0,.04,0,.06,0,1.68,0,3.33.12,4.95.34,4.31-12.06,15.82-20.71,29.36-20.75,14-.05,25.88,9.11,29.92,21.78,3.42-2.1,7.44-3.31,11.75-3.32,6.37-.02,12.14,2.59,16.27,6.81,1.57-7.5,8.2-13.15,16.17-13.17,9.16-.03,16.61,7.37,16.64,16.53.03,9.16-7.37,16.61-16.53,16.64-3.67.01-7.07-1.17-9.82-3.18-.49,12.06-10.4,21.7-22.58,21.74-8.15.03-15.3-4.25-19.32-10.68-5.66,5.8-13.55,9.42-22.29,9.45-.31,0-.61-.01-.92-.02-3.51,15.2-17.1,26.55-33.37,26.61-10.66.04-20.2-4.78-26.53-12.38-3.99,1.27-8.23,1.96-12.64,1.97-23.32.08-42.28-18.76-42.36-42.08-.08-23.32,18.76-42.28,42.08-42.36Z"/><path class="cls-4" d="m769.51,1876.25c-8.05.23-14.99,4.69-18.74,11.18-8.8-8.78-21.04-14.07-34.44-13.69-1.72.05-3.41.2-5.07.42-1.48-3.68-3.21-7.23-5.17-10.63,10.63-5.19,17.82-16.24,17.46-28.84-.49-17.16-14.8-30.68-31.96-30.19-13.9.4-25.41,9.86-29.02,22.57-9.52-3.45-19.85-5.21-30.59-4.9-1.84.05-3.66.17-5.47.34-7.39-17.08-24.61-28.81-44.35-28.25-21.28.61-38.83,15.32-43.98,34.92-4.92-1.72-10.22-2.6-15.74-2.44-19.62.56-35.86,13.93-40.93,31.87-4.15-.19-8.32.58-12.17,2.32.28-1.47.41-2.99.37-4.54-.33-11.56-9.97-20.66-21.52-20.33-11.56.33-20.66,9.97-20.33,21.52s9.97,20.66,21.52,20.33c1.98-.06,3.88-.39,5.68-.96-3,9.38-.61,20.07,7.03,27.29,9.82,9.27,24.87,9.56,35.01,1.15,7.7,5.88,17.39,9.27,27.83,8.97,10.11-.29,19.31-3.99,26.56-9.95,0,.98,0,1.96.03,2.94,1.31,45.74,39.44,81.76,85.18,80.45,23.04-.66,43.61-10.67,58.19-26.28,7.12,3.97,15.37,6.14,24.11,5.89,25.52-.73,45.68-21.73,45.51-47.14,2,.52,4.11.77,6.28.71,12.36-.35,22.09-10.66,21.74-23.02-.35-12.36-10.66-22.09-23.02-21.74Z"/><path class="cls-6" d="m105.64,600.72c-28.14,0-32.73-4.59-32.73-32.73,0-.61-.5-1.11-1.11-1.11s-1.11.5-1.11,1.11c0,28.14-4.59,32.73-32.73,32.73-.61,0-1.11.5-1.11,1.11s.5,1.11,1.11,1.11c28.14,0,32.73,4.59,32.73,32.73,0,.61.5,1.11,1.11,1.11s1.11-.5,1.11-1.11c0-28.14,4.59-32.73,32.73-32.73.61,0,1.11-.5,1.11-1.11s-.5-1.11-1.11-1.11Z"/><path class="cls-6" d="m1019.93,1296.33c-28.14,0-32.73-4.59-32.73-32.73,0-.61-.5-1.11-1.11-1.11s-1.11.5-1.11,1.11c0,28.14-4.59,32.73-32.73,32.73-.61,0-1.11.5-1.11,1.11s.5,1.11,1.11,1.11c28.14,0,32.73,4.59,32.73,32.73,0,.61.5,1.11,1.11,1.11s1.11-.5,1.11-1.11c0-28.14,4.59-32.73,32.73-32.73.61,0,1.11-.5,1.11-1.11s-.5-1.11-1.11-1.11Z"/><path class="cls-6" d="m111.83,1270.51c-28.14,0-32.73-4.59-32.73-32.73,0-.61-.5-1.11-1.11-1.11s-1.11.5-1.11,1.11c0,28.14-4.59,32.73-32.73,32.73-.61,0-1.11.5-1.11,1.11s.5,1.11,1.11,1.11c28.14,0,32.73,4.59,32.73,32.73,0,.61.5,1.11,1.11,1.11s1.11-.5,1.11-1.11c0-28.14,4.59-32.73,32.73-32.73.61,0,1.11-.5,1.11-1.11s-.5-1.11-1.11-1.11Z"/><path class="cls-6" d="m610.4,58.5c-28.14,0-32.73-4.59-32.73-32.73,0-.61-.5-1.11-1.11-1.11s-1.11.5-1.11,1.11c0,28.14-4.59,32.73-32.73,32.73-.61,0-1.11.5-1.11,1.11s.5,1.11,1.11,1.11c28.14,0,32.73,4.59,32.73,32.73,0,.61.5,1.11,1.11,1.11s1.11-.5,1.11-1.11c0-28.14,4.59-32.73,32.73-32.73.61,0,1.11-.5,1.11-1.11s-.5-1.11-1.11-1.11Z"/><path class="cls-6" d="m970.11,1635.34c0-23.1,15.1-42.67,35.97-49.39-5.02-1.62-10.37-2.5-15.93-2.5-28.66,0-51.89,23.23-51.89,51.89s23.23,51.89,51.89,51.89c5.56,0,10.91-.88,15.93-2.5-20.87-6.72-35.97-26.29-35.97-49.39Z"/><path class="cls-4" d="m299.27,442.69c2.8-8.62-1.92-17.87-10.54-20.67-8.62-2.8-17.87,1.92-20.67,10.54-.18.55-.32,1.1-.44,1.65-2.97-2.13-6.31-3.85-9.97-5.03-18-5.84-37.25,3.11-44.62,20.14-1.62-11.06-9.3-20.8-20.65-24.48-4.02-1.31-8.12-1.72-12.09-1.36-5.21-12.13-15.42-22.04-28.96-26.43-24.94-8.09-51.72,5.56-59.82,30.51-1.43,4.4-2.17,8.86-2.3,13.26-.58-.24-1.18-.47-1.79-.67-11.95-3.88-24.77,2.67-28.65,14.61-3.88,11.95,2.67,24.77,14.61,28.65,10.55,3.42,21.78-1.28,26.94-10.66,5.53,6.59,12.91,11.77,21.69,14.62,9.28,3.01,18.82,3,27.55.53,7.12,4.5,15.84,8.58,25.56,11.74,26.1,8.47,50.32,7.27,57.26-2.25.91.38,1.83.73,2.79,1.03,19.12,6.2,39.64-4.26,45.85-23.38,2.31-7.13,2.31-14.46.4-21.16,7.73,1.08,15.35-3.49,17.85-11.18Z"/><circle class="cls-4" cx="40.82" cy="421.74" r="25.21" transform="translate(-187.15 64.58) rotate(-27.02)"/><g class="cls-10"><path class="cls-3" d="m236.75,1745.02c3.23-.45,5.83,2,5.82,5.48,0,3.48-2.62,6.67-5.85,7.12-3.23.45-5.84-2-5.83-5.48,0-3.48,2.63-6.67,5.85-7.12Z"/><path class="cls-3" d="m239.86,1745.55l155.18,84.42c1.63.89,2.71,2.7,2.7,4.94,0,3.48-2.62,6.67-5.85,7.12-1.15.16-2.22-.05-3.12-.54l-155.18-84.42c.9.49,1.97.7,3.12.54,3.23-.45,5.84-3.64,5.85-7.12,0-2.24-1.07-4.06-2.7-4.94Z"/></g><g class="cls-10"><polygon class="cls-2" points="900.74 890.11 911.03 895.71 902.19 896.95 891.9 891.35 900.74 890.11"/><polygon class="cls-2" points="900.78 870.3 911.06 875.9 911.03 895.71 900.74 890.11 900.78 870.3"/><polygon class="cls-2" points="923.59 842.52 933.88 848.12 933.84 872.7 923.55 867.1 923.59 842.52"/><polygon class="cls-2" points="923.55 867.1 933.84 872.7 911.06 875.9 900.78 870.3 923.55 867.1"/><polygon class="cls-2" points="946.41 814.74 956.7 820.34 956.65 844.92 946.37 839.32 946.41 814.74"/><polygon class="cls-2" points="946.37 839.32 956.65 844.92 933.88 848.12 923.59 842.52 946.37 839.32"/><polygon class="cls-2" points="969.18 811.54 979.47 817.14 956.7 820.34 946.41 814.74 969.18 811.54"/><polygon class="cls-2" points="969.23 786.96 979.52 792.56 979.47 817.14 969.18 811.54 969.23 786.96"/><polygon class="cls-2" points="987.6 774.85 997.89 780.44 997.87 789.98 987.58 784.39 987.6 774.85"/><polygon class="cls-2" points="987.58 784.39 997.87 789.98 979.52 792.56 969.23 786.96 987.58 784.39"/><polygon class="cls-2" points="987.6 774.85 987.58 784.39 969.23 786.96 969.18 811.54 946.41 814.74 946.37 839.32 923.59 842.52 923.55 867.1 900.78 870.3 900.74 890.11 891.9 891.35 891.96 862.01 914.73 858.81 914.77 834.23 937.55 831.03 937.59 806.44 960.37 803.24 960.41 778.67 987.6 774.85"/></g><path class="cls-9" d="m-186.25-195.18v2305.53h1452.51V-195.18H-186.25ZM1080,1917.07H0V0h1080v1917.07Z"/><g class="cls-10"><path class="cls-1" d="m152.02,619.85c3.23-.45,5.83,2,5.82,5.48,0,3.48-2.62,6.67-5.85,7.12s-5.84-2-5.83-5.48,2.63-6.67,5.85-7.12Z"/><path class="cls-1" d="m155.14,620.39l155.18,84.42c1.63.89,2.71,2.7,2.7,4.94,0,3.48-2.62,6.67-5.85,7.12-1.15.16-2.22-.05-3.12-.54l-155.18-84.42c.9.49,1.97.7,3.12.54,3.23-.45,5.84-3.64,5.85-7.12,0-2.24-1.07-4.06-2.7-4.94Z"/></g></svg>